<mxfile host="app.diagrams.net" modified="2020-12-19T03:56:56.391Z" agent="5.0 (Windows NT 10.0; Win64; x64) AppleWebKit/537.36 (KHTML, like Gecko) Chrome/87.0.4280.88 Safari/537.36" etag="qQqmjTa3d7z9U2Xmu6bC" version="14.0.5" type="github">
  <diagram id="C5RBs43oDa-KdzZeNtuy" name="Page-1">
    <mxGraphModel dx="2221" dy="627" grid="1" gridSize="10" guides="1" tooltips="1" connect="1" arrows="1" fold="1" page="1" pageScale="1" pageWidth="827" pageHeight="1169" math="0" shadow="0">
      <root>
        <mxCell id="WIyWlLk6GJQsqaUBKTNV-0" />
        <mxCell id="WIyWlLk6GJQsqaUBKTNV-1" parent="WIyWlLk6GJQsqaUBKTNV-0" />
        <mxCell id="YeWuNCgCZ7l87NX-cv6t-28" value="AbstractCancelOfferOrderDTO" style="swimlane;fontStyle=0;childLayout=stackLayout;horizontal=1;startSize=26;horizontalStack=0;resizeParent=1;resizeParentMax=0;resizeLast=0;collapsible=1;marginBottom=0;fontColor=#000000;verticalAlign=middle;align=right;fillColor=none;glass=0;rounded=0;shadow=0;sketch=1;" vertex="1" parent="WIyWlLk6GJQsqaUBKTNV-1">
          <mxGeometry x="-320" y="352" width="200" height="104" as="geometry" />
        </mxCell>
        <mxCell id="YeWuNCgCZ7l87NX-cv6t-29" value="List&lt;OrderItemOfferDTO&gt;" style="text;strokeColor=none;align=right;verticalAlign=middle;spacingLeft=4;spacingRight=4;overflow=hidden;rotatable=0;points=[[0,0.5],[1,0.5]];portConstraint=eastwest;glass=0;rounded=0;shadow=0;sketch=1;" vertex="1" parent="YeWuNCgCZ7l87NX-cv6t-28">
          <mxGeometry y="26" width="200" height="26" as="geometry" />
        </mxCell>
        <mxCell id="YeWuNCgCZ7l87NX-cv6t-30" value="+ field: type" style="text;strokeColor=none;align=right;verticalAlign=middle;spacingLeft=4;spacingRight=4;overflow=hidden;rotatable=0;points=[[0,0.5],[1,0.5]];portConstraint=eastwest;glass=0;rounded=0;shadow=0;sketch=1;" vertex="1" parent="YeWuNCgCZ7l87NX-cv6t-28">
          <mxGeometry y="52" width="200" height="26" as="geometry" />
        </mxCell>
        <mxCell id="YeWuNCgCZ7l87NX-cv6t-31" value="+ field: type" style="text;strokeColor=none;align=right;verticalAlign=middle;spacingLeft=4;spacingRight=4;overflow=hidden;rotatable=0;points=[[0,0.5],[1,0.5]];portConstraint=eastwest;glass=0;rounded=0;shadow=0;sketch=1;" vertex="1" parent="YeWuNCgCZ7l87NX-cv6t-28">
          <mxGeometry y="78" width="200" height="26" as="geometry" />
        </mxCell>
        <mxCell id="YeWuNCgCZ7l87NX-cv6t-35" value="LogoutSubscriberOrderDTO" style="swimlane;fontStyle=0;childLayout=stackLayout;horizontal=1;startSize=26;fillColor=none;horizontalStack=0;resizeParent=1;resizeParentMax=0;resizeLast=0;collapsible=1;marginBottom=0;fontColor=#000000;sketch=1;" vertex="1" parent="WIyWlLk6GJQsqaUBKTNV-1">
          <mxGeometry x="-450" y="520" width="180" height="104" as="geometry" />
        </mxCell>
        <mxCell id="YeWuNCgCZ7l87NX-cv6t-36" value="OrderItemSubscriberDTO" style="text;strokeColor=none;fillColor=none;align=left;verticalAlign=top;spacingLeft=4;spacingRight=4;overflow=hidden;rotatable=0;points=[[0,0.5],[1,0.5]];portConstraint=eastwest;sketch=1;" vertex="1" parent="YeWuNCgCZ7l87NX-cv6t-35">
          <mxGeometry y="26" width="180" height="26" as="geometry" />
        </mxCell>
        <mxCell id="YeWuNCgCZ7l87NX-cv6t-37" value="+ field: type" style="text;strokeColor=none;fillColor=none;align=left;verticalAlign=top;spacingLeft=4;spacingRight=4;overflow=hidden;rotatable=0;points=[[0,0.5],[1,0.5]];portConstraint=eastwest;sketch=1;" vertex="1" parent="YeWuNCgCZ7l87NX-cv6t-35">
          <mxGeometry y="52" width="180" height="26" as="geometry" />
        </mxCell>
        <mxCell id="YeWuNCgCZ7l87NX-cv6t-38" value="+ field: type" style="text;strokeColor=none;fillColor=none;align=left;verticalAlign=top;spacingLeft=4;spacingRight=4;overflow=hidden;rotatable=0;points=[[0,0.5],[1,0.5]];portConstraint=eastwest;sketch=1;" vertex="1" parent="YeWuNCgCZ7l87NX-cv6t-35">
          <mxGeometry y="78" width="180" height="26" as="geometry" />
        </mxCell>
        <mxCell id="YeWuNCgCZ7l87NX-cv6t-41" value="ExchangeCancelOfferOrderDTO" style="swimlane;fontStyle=0;childLayout=stackLayout;horizontal=1;startSize=26;fillColor=none;horizontalStack=0;resizeParent=1;resizeParentMax=0;resizeLast=0;collapsible=1;marginBottom=0;fontColor=#000000;sketch=1;" vertex="1" parent="WIyWlLk6GJQsqaUBKTNV-1">
          <mxGeometry x="-250" y="680" width="180" height="104" as="geometry" />
        </mxCell>
        <mxCell id="YeWuNCgCZ7l87NX-cv6t-42" value="+ field: type" style="text;strokeColor=none;fillColor=none;align=left;verticalAlign=top;spacingLeft=4;spacingRight=4;overflow=hidden;rotatable=0;points=[[0,0.5],[1,0.5]];portConstraint=eastwest;sketch=1;" vertex="1" parent="YeWuNCgCZ7l87NX-cv6t-41">
          <mxGeometry y="26" width="180" height="26" as="geometry" />
        </mxCell>
        <mxCell id="YeWuNCgCZ7l87NX-cv6t-43" value="+ field: type" style="text;strokeColor=none;fillColor=none;align=left;verticalAlign=top;spacingLeft=4;spacingRight=4;overflow=hidden;rotatable=0;points=[[0,0.5],[1,0.5]];portConstraint=eastwest;sketch=1;" vertex="1" parent="YeWuNCgCZ7l87NX-cv6t-41">
          <mxGeometry y="52" width="180" height="26" as="geometry" />
        </mxCell>
        <mxCell id="YeWuNCgCZ7l87NX-cv6t-44" value="+ field: type" style="text;strokeColor=none;fillColor=none;align=left;verticalAlign=top;spacingLeft=4;spacingRight=4;overflow=hidden;rotatable=0;points=[[0,0.5],[1,0.5]];portConstraint=eastwest;sketch=1;" vertex="1" parent="YeWuNCgCZ7l87NX-cv6t-41">
          <mxGeometry y="78" width="180" height="26" as="geometry" />
        </mxCell>
        <mxCell id="YeWuNCgCZ7l87NX-cv6t-45" value="CancelOfferOrderDTO" style="swimlane;fontStyle=0;childLayout=stackLayout;horizontal=1;startSize=26;fillColor=none;horizontalStack=0;resizeParent=1;resizeParentMax=0;resizeLast=0;collapsible=1;marginBottom=0;fontColor=#000000;sketch=1;" vertex="1" parent="WIyWlLk6GJQsqaUBKTNV-1">
          <mxGeometry x="-250" y="520" width="180" height="104" as="geometry" />
        </mxCell>
        <mxCell id="YeWuNCgCZ7l87NX-cv6t-46" value="Â " style="text;strokeColor=none;fillColor=none;align=left;verticalAlign=top;spacingLeft=4;spacingRight=4;overflow=hidden;rotatable=0;points=[[0,0.5],[1,0.5]];portConstraint=eastwest;sketch=1;" vertex="1" parent="YeWuNCgCZ7l87NX-cv6t-45">
          <mxGeometry y="26" width="180" height="26" as="geometry" />
        </mxCell>
        <mxCell id="YeWuNCgCZ7l87NX-cv6t-47" value="+ field: type" style="text;strokeColor=none;fillColor=none;align=left;verticalAlign=top;spacingLeft=4;spacingRight=4;overflow=hidden;rotatable=0;points=[[0,0.5],[1,0.5]];portConstraint=eastwest;sketch=1;" vertex="1" parent="YeWuNCgCZ7l87NX-cv6t-45">
          <mxGeometry y="52" width="180" height="26" as="geometry" />
        </mxCell>
        <mxCell id="YeWuNCgCZ7l87NX-cv6t-48" value="+ field: type" style="text;strokeColor=none;fillColor=none;align=left;verticalAlign=top;spacingLeft=4;spacingRight=4;overflow=hidden;rotatable=0;points=[[0,0.5],[1,0.5]];portConstraint=eastwest;sketch=1;" vertex="1" parent="YeWuNCgCZ7l87NX-cv6t-45">
          <mxGeometry y="78" width="180" height="26" as="geometry" />
        </mxCell>
        <mxCell id="YeWuNCgCZ7l87NX-cv6t-55" value="PurchaseResourceOrderDTO" style="swimlane;fontStyle=0;childLayout=stackLayout;horizontal=1;startSize=26;horizontalStack=0;resizeParent=1;resizeParentMax=0;resizeLast=0;collapsible=1;marginBottom=0;fontColor=#000000;verticalAlign=middle;align=right;fillColor=none;glass=0;rounded=0;shadow=0;sketch=1;" vertex="1" parent="WIyWlLk6GJQsqaUBKTNV-1">
          <mxGeometry x="120" y="352" width="190" height="104" as="geometry" />
        </mxCell>
        <mxCell id="YeWuNCgCZ7l87NX-cv6t-56" value="List&lt;OrderItemOfferDTO&gt;" style="text;strokeColor=none;align=right;verticalAlign=middle;spacingLeft=4;spacingRight=4;overflow=hidden;rotatable=0;points=[[0,0.5],[1,0.5]];portConstraint=eastwest;glass=0;rounded=0;shadow=0;sketch=1;" vertex="1" parent="YeWuNCgCZ7l87NX-cv6t-55">
          <mxGeometry y="26" width="190" height="26" as="geometry" />
        </mxCell>
        <mxCell id="YeWuNCgCZ7l87NX-cv6t-57" value="+ field: type" style="text;strokeColor=none;align=right;verticalAlign=middle;spacingLeft=4;spacingRight=4;overflow=hidden;rotatable=0;points=[[0,0.5],[1,0.5]];portConstraint=eastwest;glass=0;rounded=0;shadow=0;sketch=1;" vertex="1" parent="YeWuNCgCZ7l87NX-cv6t-55">
          <mxGeometry y="52" width="190" height="26" as="geometry" />
        </mxCell>
        <mxCell id="YeWuNCgCZ7l87NX-cv6t-58" value="+ field: type" style="text;strokeColor=none;align=right;verticalAlign=middle;spacingLeft=4;spacingRight=4;overflow=hidden;rotatable=0;points=[[0,0.5],[1,0.5]];portConstraint=eastwest;glass=0;rounded=0;shadow=0;sketch=1;" vertex="1" parent="YeWuNCgCZ7l87NX-cv6t-55">
          <mxGeometry y="78" width="190" height="26" as="geometry" />
        </mxCell>
        <mxCell id="YeWuNCgCZ7l87NX-cv6t-59" value="CancelResourceOrderDTO" style="swimlane;fontStyle=0;childLayout=stackLayout;horizontal=1;startSize=26;horizontalStack=0;resizeParent=1;resizeParentMax=0;resizeLast=0;collapsible=1;marginBottom=0;fontColor=#000000;verticalAlign=middle;align=right;fillColor=none;glass=0;rounded=0;shadow=0;sketch=1;" vertex="1" parent="WIyWlLk6GJQsqaUBKTNV-1">
          <mxGeometry x="330" y="350" width="210" height="104" as="geometry" />
        </mxCell>
        <mxCell id="YeWuNCgCZ7l87NX-cv6t-60" value="List&lt;OrderItemOfferDTO&gt;" style="text;strokeColor=none;align=right;verticalAlign=middle;spacingLeft=4;spacingRight=4;overflow=hidden;rotatable=0;points=[[0,0.5],[1,0.5]];portConstraint=eastwest;glass=0;rounded=0;shadow=0;sketch=1;" vertex="1" parent="YeWuNCgCZ7l87NX-cv6t-59">
          <mxGeometry y="26" width="210" height="26" as="geometry" />
        </mxCell>
        <mxCell id="YeWuNCgCZ7l87NX-cv6t-61" value="List&lt;OrderItemSubAccessResDTO&gt;" style="text;strokeColor=none;align=right;verticalAlign=middle;spacingLeft=4;spacingRight=4;overflow=hidden;rotatable=0;points=[[0,0.5],[1,0.5]];portConstraint=eastwest;glass=0;rounded=0;shadow=0;sketch=1;" vertex="1" parent="YeWuNCgCZ7l87NX-cv6t-59">
          <mxGeometry y="52" width="210" height="26" as="geometry" />
        </mxCell>
        <mxCell id="YeWuNCgCZ7l87NX-cv6t-62" value="+ field: type" style="text;strokeColor=none;align=right;verticalAlign=middle;spacingLeft=4;spacingRight=4;overflow=hidden;rotatable=0;points=[[0,0.5],[1,0.5]];portConstraint=eastwest;glass=0;rounded=0;shadow=0;sketch=1;" vertex="1" parent="YeWuNCgCZ7l87NX-cv6t-59">
          <mxGeometry y="78" width="210" height="26" as="geometry" />
        </mxCell>
        <mxCell id="YeWuNCgCZ7l87NX-cv6t-63" value="ResumeSubscriberOrderDTO" style="swimlane;fontStyle=0;childLayout=stackLayout;horizontal=1;startSize=26;horizontalStack=0;resizeParent=1;resizeParentMax=0;resizeLast=0;collapsible=1;marginBottom=0;fontColor=#000000;verticalAlign=middle;align=right;fillColor=none;glass=0;rounded=0;shadow=0;sketch=1;" vertex="1" parent="WIyWlLk6GJQsqaUBKTNV-1">
          <mxGeometry x="550" y="352" width="190" height="104" as="geometry" />
        </mxCell>
        <mxCell id="YeWuNCgCZ7l87NX-cv6t-64" value="OrderItemSubscriberDTO" style="text;strokeColor=none;align=right;verticalAlign=middle;spacingLeft=4;spacingRight=4;overflow=hidden;rotatable=0;points=[[0,0.5],[1,0.5]];portConstraint=eastwest;glass=0;rounded=0;shadow=0;sketch=1;" vertex="1" parent="YeWuNCgCZ7l87NX-cv6t-63">
          <mxGeometry y="26" width="190" height="26" as="geometry" />
        </mxCell>
        <mxCell id="YeWuNCgCZ7l87NX-cv6t-65" value="List&lt;OrderItemOfferDTO&gt;" style="text;strokeColor=none;align=right;verticalAlign=middle;spacingLeft=4;spacingRight=4;overflow=hidden;rotatable=0;points=[[0,0.5],[1,0.5]];portConstraint=eastwest;glass=0;rounded=0;shadow=0;sketch=1;" vertex="1" parent="YeWuNCgCZ7l87NX-cv6t-63">
          <mxGeometry y="52" width="190" height="26" as="geometry" />
        </mxCell>
        <mxCell id="YeWuNCgCZ7l87NX-cv6t-66" value="+ field: type" style="text;strokeColor=none;align=right;verticalAlign=middle;spacingLeft=4;spacingRight=4;overflow=hidden;rotatable=0;points=[[0,0.5],[1,0.5]];portConstraint=eastwest;glass=0;rounded=0;shadow=0;sketch=1;" vertex="1" parent="YeWuNCgCZ7l87NX-cv6t-63">
          <mxGeometry y="78" width="190" height="26" as="geometry" />
        </mxCell>
        <mxCell id="YeWuNCgCZ7l87NX-cv6t-67" value="ExchangeAccessResourceOrderDTO" style="swimlane;fontStyle=0;childLayout=stackLayout;horizontal=1;startSize=26;horizontalStack=0;resizeParent=1;resizeParentMax=0;resizeLast=0;collapsible=1;marginBottom=0;fontColor=#000000;verticalAlign=middle;align=right;fillColor=none;glass=0;rounded=0;shadow=0;sketch=1;" vertex="1" parent="WIyWlLk6GJQsqaUBKTNV-1">
          <mxGeometry x="770" y="352" width="230" height="104" as="geometry" />
        </mxCell>
        <mxCell id="YeWuNCgCZ7l87NX-cv6t-68" value="List&lt;OrderItemSubAccessResDTO&gt;" style="text;strokeColor=none;align=right;verticalAlign=middle;spacingLeft=4;spacingRight=4;overflow=hidden;rotatable=0;points=[[0,0.5],[1,0.5]];portConstraint=eastwest;glass=0;rounded=0;shadow=0;sketch=1;" vertex="1" parent="YeWuNCgCZ7l87NX-cv6t-67">
          <mxGeometry y="26" width="230" height="26" as="geometry" />
        </mxCell>
        <mxCell id="YeWuNCgCZ7l87NX-cv6t-69" value="List&lt;OrderItemSubscriberDTO&gt;" style="text;strokeColor=none;align=right;verticalAlign=middle;spacingLeft=4;spacingRight=4;overflow=hidden;rotatable=0;points=[[0,0.5],[1,0.5]];portConstraint=eastwest;glass=0;rounded=0;shadow=0;sketch=1;" vertex="1" parent="YeWuNCgCZ7l87NX-cv6t-67">
          <mxGeometry y="52" width="230" height="26" as="geometry" />
        </mxCell>
        <mxCell id="YeWuNCgCZ7l87NX-cv6t-70" value="+ field: type" style="text;strokeColor=none;align=right;verticalAlign=middle;spacingLeft=4;spacingRight=4;overflow=hidden;rotatable=0;points=[[0,0.5],[1,0.5]];portConstraint=eastwest;glass=0;rounded=0;shadow=0;sketch=1;" vertex="1" parent="YeWuNCgCZ7l87NX-cv6t-67">
          <mxGeometry y="78" width="230" height="26" as="geometry" />
        </mxCell>
        <mxCell id="YeWuNCgCZ7l87NX-cv6t-71" value="SuspendSubscriberOrderDTO" style="swimlane;fontStyle=0;childLayout=stackLayout;horizontal=1;startSize=26;horizontalStack=0;resizeParent=1;resizeParentMax=0;resizeLast=0;collapsible=1;marginBottom=0;fontColor=#000000;verticalAlign=middle;align=right;fillColor=none;glass=0;rounded=0;shadow=0;sketch=1;" vertex="1" parent="WIyWlLk6GJQsqaUBKTNV-1">
          <mxGeometry x="1030" y="352" width="190" height="104" as="geometry" />
        </mxCell>
        <mxCell id="YeWuNCgCZ7l87NX-cv6t-72" value="OrderItemSubscriberDTO" style="text;strokeColor=none;align=right;verticalAlign=middle;spacingLeft=4;spacingRight=4;overflow=hidden;rotatable=0;points=[[0,0.5],[1,0.5]];portConstraint=eastwest;glass=0;rounded=0;shadow=0;sketch=1;" vertex="1" parent="YeWuNCgCZ7l87NX-cv6t-71">
          <mxGeometry y="26" width="190" height="26" as="geometry" />
        </mxCell>
        <mxCell id="YeWuNCgCZ7l87NX-cv6t-73" value="List&lt;OrderItemOfferDTO&gt;" style="text;strokeColor=none;align=right;verticalAlign=middle;spacingLeft=4;spacingRight=4;overflow=hidden;rotatable=0;points=[[0,0.5],[1,0.5]];portConstraint=eastwest;glass=0;rounded=0;shadow=0;sketch=1;" vertex="1" parent="YeWuNCgCZ7l87NX-cv6t-71">
          <mxGeometry y="52" width="190" height="26" as="geometry" />
        </mxCell>
        <mxCell id="YeWuNCgCZ7l87NX-cv6t-74" value="+ field: type" style="text;strokeColor=none;align=right;verticalAlign=middle;spacingLeft=4;spacingRight=4;overflow=hidden;rotatable=0;points=[[0,0.5],[1,0.5]];portConstraint=eastwest;glass=0;rounded=0;shadow=0;sketch=1;" vertex="1" parent="YeWuNCgCZ7l87NX-cv6t-71">
          <mxGeometry y="78" width="190" height="26" as="geometry" />
        </mxCell>
        <mxCell id="YeWuNCgCZ7l87NX-cv6t-75" value="AbstractPurchaseOfferOrderDTO" style="swimlane;fontStyle=0;childLayout=stackLayout;horizontal=1;startSize=26;horizontalStack=0;resizeParent=1;resizeParentMax=0;resizeLast=0;collapsible=1;marginBottom=0;fontColor=#000000;verticalAlign=middle;align=right;fillColor=none;glass=0;rounded=0;shadow=0;sketch=1;" vertex="1" parent="WIyWlLk6GJQsqaUBKTNV-1">
          <mxGeometry x="1250" y="353" width="190" height="78" as="geometry" />
        </mxCell>
        <mxCell id="YeWuNCgCZ7l87NX-cv6t-76" value="List&lt;OrderItemOfferDTO&gt;" style="text;strokeColor=none;align=right;verticalAlign=middle;spacingLeft=4;spacingRight=4;overflow=hidden;rotatable=0;points=[[0,0.5],[1,0.5]];portConstraint=eastwest;glass=0;rounded=0;shadow=0;sketch=1;" vertex="1" parent="YeWuNCgCZ7l87NX-cv6t-75">
          <mxGeometry y="26" width="190" height="26" as="geometry" />
        </mxCell>
        <mxCell id="YeWuNCgCZ7l87NX-cv6t-78" value="+ field: type" style="text;strokeColor=none;align=right;verticalAlign=middle;spacingLeft=4;spacingRight=4;overflow=hidden;rotatable=0;points=[[0,0.5],[1,0.5]];portConstraint=eastwest;glass=0;rounded=0;shadow=0;sketch=1;" vertex="1" parent="YeWuNCgCZ7l87NX-cv6t-75">
          <mxGeometry y="52" width="190" height="26" as="geometry" />
        </mxCell>
        <mxCell id="YeWuNCgCZ7l87NX-cv6t-79" value="ReopenOrderDTO" style="swimlane;fontStyle=0;childLayout=stackLayout;horizontal=1;startSize=26;horizontalStack=0;resizeParent=1;resizeParentMax=0;resizeLast=0;collapsible=1;marginBottom=0;fontColor=#000000;verticalAlign=middle;align=right;fillColor=none;glass=0;rounded=0;shadow=0;sketch=1;" vertex="1" parent="WIyWlLk6GJQsqaUBKTNV-1">
          <mxGeometry x="1470" y="353" width="190" height="104" as="geometry" />
        </mxCell>
        <mxCell id="YeWuNCgCZ7l87NX-cv6t-80" value="OrderItemSubscriberDTO" style="text;strokeColor=none;align=right;verticalAlign=middle;spacingLeft=4;spacingRight=4;overflow=hidden;rotatable=0;points=[[0,0.5],[1,0.5]];portConstraint=eastwest;glass=0;rounded=0;shadow=0;sketch=1;" vertex="1" parent="YeWuNCgCZ7l87NX-cv6t-79">
          <mxGeometry y="26" width="190" height="26" as="geometry" />
        </mxCell>
        <mxCell id="YeWuNCgCZ7l87NX-cv6t-81" value="List&lt;OrderItemOfferDTO&gt;" style="text;strokeColor=none;align=right;verticalAlign=middle;spacingLeft=4;spacingRight=4;overflow=hidden;rotatable=0;points=[[0,0.5],[1,0.5]];portConstraint=eastwest;glass=0;rounded=0;shadow=0;sketch=1;" vertex="1" parent="YeWuNCgCZ7l87NX-cv6t-79">
          <mxGeometry y="52" width="190" height="26" as="geometry" />
        </mxCell>
        <mxCell id="YeWuNCgCZ7l87NX-cv6t-82" value="+ field: type" style="text;strokeColor=none;align=right;verticalAlign=middle;spacingLeft=4;spacingRight=4;overflow=hidden;rotatable=0;points=[[0,0.5],[1,0.5]];portConstraint=eastwest;glass=0;rounded=0;shadow=0;sketch=1;" vertex="1" parent="YeWuNCgCZ7l87NX-cv6t-79">
          <mxGeometry y="78" width="190" height="26" as="geometry" />
        </mxCell>
        <mxCell id="YeWuNCgCZ7l87NX-cv6t-83" value="NewInstallOrderDTO" style="swimlane;fontStyle=0;childLayout=stackLayout;horizontal=1;startSize=26;fillColor=none;horizontalStack=0;resizeParent=1;resizeParentMax=0;resizeLast=0;collapsible=1;marginBottom=0;fontColor=#000000;sketch=1;" vertex="1" parent="WIyWlLk6GJQsqaUBKTNV-1">
          <mxGeometry x="1030" y="559" width="190" height="52" as="geometry" />
        </mxCell>
        <mxCell id="YeWuNCgCZ7l87NX-cv6t-85" value="+ field: type" style="text;strokeColor=none;fillColor=none;align=left;verticalAlign=top;spacingLeft=4;spacingRight=4;overflow=hidden;rotatable=0;points=[[0,0.5],[1,0.5]];portConstraint=eastwest;sketch=1;" vertex="1" parent="YeWuNCgCZ7l87NX-cv6t-83">
          <mxGeometry y="26" width="190" height="26" as="geometry" />
        </mxCell>
        <mxCell id="YeWuNCgCZ7l87NX-cv6t-86" value="ExchangeBasicOfferOrderDTO" style="swimlane;fontStyle=0;childLayout=stackLayout;horizontal=1;startSize=26;fillColor=none;horizontalStack=0;resizeParent=1;resizeParentMax=0;resizeLast=0;collapsible=1;marginBottom=0;fontColor=#000000;sketch=1;" vertex="1" parent="WIyWlLk6GJQsqaUBKTNV-1">
          <mxGeometry x="1260" y="560" width="190" height="78" as="geometry" />
        </mxCell>
        <mxCell id="YeWuNCgCZ7l87NX-cv6t-87" value="List&lt;OrderItemOfferDTO&gt;" style="text;strokeColor=none;fillColor=none;align=left;verticalAlign=top;spacingLeft=4;spacingRight=4;overflow=hidden;rotatable=0;points=[[0,0.5],[1,0.5]];portConstraint=eastwest;sketch=1;" vertex="1" parent="YeWuNCgCZ7l87NX-cv6t-86">
          <mxGeometry y="26" width="190" height="26" as="geometry" />
        </mxCell>
        <mxCell id="YeWuNCgCZ7l87NX-cv6t-88" value="+ field: type" style="text;strokeColor=none;fillColor=none;align=left;verticalAlign=top;spacingLeft=4;spacingRight=4;overflow=hidden;rotatable=0;points=[[0,0.5],[1,0.5]];portConstraint=eastwest;sketch=1;" vertex="1" parent="YeWuNCgCZ7l87NX-cv6t-86">
          <mxGeometry y="52" width="190" height="26" as="geometry" />
        </mxCell>
        <mxCell id="YeWuNCgCZ7l87NX-cv6t-89" value="PurchaseOfferOrderDTO" style="swimlane;fontStyle=0;childLayout=stackLayout;horizontal=1;startSize=26;fillColor=none;horizontalStack=0;resizeParent=1;resizeParentMax=0;resizeLast=0;collapsible=1;marginBottom=0;fontColor=#000000;sketch=1;" vertex="1" parent="WIyWlLk6GJQsqaUBKTNV-1">
          <mxGeometry x="1520" y="560" width="190" height="52" as="geometry" />
        </mxCell>
        <mxCell id="YeWuNCgCZ7l87NX-cv6t-91" value="+ field: type" style="text;strokeColor=none;fillColor=none;align=left;verticalAlign=top;spacingLeft=4;spacingRight=4;overflow=hidden;rotatable=0;points=[[0,0.5],[1,0.5]];portConstraint=eastwest;sketch=1;" vertex="1" parent="YeWuNCgCZ7l87NX-cv6t-89">
          <mxGeometry y="26" width="190" height="26" as="geometry" />
        </mxCell>
        <mxCell id="YeWuNCgCZ7l87NX-cv6t-92" value="ExchangePurchaseOfferOrderDTO" style="swimlane;fontStyle=0;childLayout=stackLayout;horizontal=1;startSize=26;fillColor=none;horizontalStack=0;resizeParent=1;resizeParentMax=0;resizeLast=0;collapsible=1;marginBottom=0;fontColor=#000000;sketch=1;" vertex="1" parent="WIyWlLk6GJQsqaUBKTNV-1">
          <mxGeometry x="1480" y="706" width="270" height="52" as="geometry" />
        </mxCell>
        <mxCell id="YeWuNCgCZ7l87NX-cv6t-93" value="+ field: type" style="text;strokeColor=none;fillColor=none;align=left;verticalAlign=top;spacingLeft=4;spacingRight=4;overflow=hidden;rotatable=0;points=[[0,0.5],[1,0.5]];portConstraint=eastwest;sketch=1;" vertex="1" parent="YeWuNCgCZ7l87NX-cv6t-92">
          <mxGeometry y="26" width="270" height="26" as="geometry" />
        </mxCell>
        <mxCell id="YeWuNCgCZ7l87NX-cv6t-94" value="PunishStopOrderDTO" style="swimlane;fontStyle=0;childLayout=stackLayout;horizontal=1;startSize=26;horizontalStack=0;resizeParent=1;resizeParentMax=0;resizeLast=0;collapsible=1;marginBottom=0;fontColor=#000000;verticalAlign=middle;align=right;fillColor=none;glass=0;rounded=0;shadow=0;sketch=1;" vertex="1" parent="WIyWlLk6GJQsqaUBKTNV-1">
          <mxGeometry x="-100" y="352" width="190" height="104" as="geometry" />
        </mxCell>
        <mxCell id="YeWuNCgCZ7l87NX-cv6t-95" value="OrderItemSubscriberDTO" style="text;strokeColor=none;align=right;verticalAlign=middle;spacingLeft=4;spacingRight=4;overflow=hidden;rotatable=0;points=[[0,0.5],[1,0.5]];portConstraint=eastwest;glass=0;rounded=0;shadow=0;sketch=1;" vertex="1" parent="YeWuNCgCZ7l87NX-cv6t-94">
          <mxGeometry y="26" width="190" height="26" as="geometry" />
        </mxCell>
        <mxCell id="YeWuNCgCZ7l87NX-cv6t-96" value="List&lt;OrderItemOfferDTO&gt;" style="text;strokeColor=none;align=right;verticalAlign=middle;spacingLeft=4;spacingRight=4;overflow=hidden;rotatable=0;points=[[0,0.5],[1,0.5]];portConstraint=eastwest;glass=0;rounded=0;shadow=0;sketch=1;" vertex="1" parent="YeWuNCgCZ7l87NX-cv6t-94">
          <mxGeometry y="52" width="190" height="26" as="geometry" />
        </mxCell>
        <mxCell id="YeWuNCgCZ7l87NX-cv6t-97" value="+ field: type" style="text;strokeColor=none;align=right;verticalAlign=middle;spacingLeft=4;spacingRight=4;overflow=hidden;rotatable=0;points=[[0,0.5],[1,0.5]];portConstraint=eastwest;glass=0;rounded=0;shadow=0;sketch=1;" vertex="1" parent="YeWuNCgCZ7l87NX-cv6t-94">
          <mxGeometry y="78" width="190" height="26" as="geometry" />
        </mxCell>
        <mxCell id="YeWuNCgCZ7l87NX-cv6t-98" value="OrderDTO" style="swimlane;fontStyle=0;childLayout=stackLayout;horizontal=1;startSize=26;fillColor=none;horizontalStack=0;resizeParent=1;resizeParentMax=0;resizeLast=0;collapsible=1;marginBottom=0;fontColor=#000000;sketch=1;shadow=0;rounded=0;glass=0;" vertex="1" parent="WIyWlLk6GJQsqaUBKTNV-1">
          <mxGeometry x="577" y="40" width="250" height="180" as="geometry" />
        </mxCell>
        <mxCell id="YeWuNCgCZ7l87NX-cv6t-99" value="private Long acceptSheetId;&#xa;private Long companyId;&#xa;private Long customerId;&#xa;private Instant finishInstant;&#xa;private String mem;&#xa;private Long actionId;&#xa;private String printInfo;&#xa;private OrderStatus status;&#xa;private Long programItemId;&#xa;private Boolean repeatOfferChange;" style="text;strokeColor=none;fillColor=none;align=left;verticalAlign=top;spacingLeft=4;spacingRight=4;overflow=hidden;rotatable=0;points=[[0,0.5],[1,0.5]];portConstraint=eastwest;sketch=1;shadow=0;rounded=0;glass=0;" vertex="1" parent="YeWuNCgCZ7l87NX-cv6t-98">
          <mxGeometry y="26" width="250" height="154" as="geometry" />
        </mxCell>
        <mxCell id="YeWuNCgCZ7l87NX-cv6t-105" value="" style="endArrow=none;html=1;shadow=0;" edge="1" parent="WIyWlLk6GJQsqaUBKTNV-1">
          <mxGeometry width="50" height="50" relative="1" as="geometry">
            <mxPoint x="-200" y="300" as="sourcePoint" />
            <mxPoint x="1570" y="300" as="targetPoint" />
          </mxGeometry>
        </mxCell>
        <mxCell id="YeWuNCgCZ7l87NX-cv6t-106" value="" style="endArrow=none;html=1;shadow=0;exitX=0.5;exitY=0;exitDx=0;exitDy=0;" edge="1" parent="WIyWlLk6GJQsqaUBKTNV-1" source="YeWuNCgCZ7l87NX-cv6t-79">
          <mxGeometry width="50" height="50" relative="1" as="geometry">
            <mxPoint x="980" y="470" as="sourcePoint" />
            <mxPoint x="1565" y="300" as="targetPoint" />
            <Array as="points">
              <mxPoint x="1565" y="310" />
            </Array>
          </mxGeometry>
        </mxCell>
        <mxCell id="YeWuNCgCZ7l87NX-cv6t-108" value="" style="endArrow=none;html=1;shadow=0;exitX=0.5;exitY=0;exitDx=0;exitDy=0;" edge="1" parent="WIyWlLk6GJQsqaUBKTNV-1">
          <mxGeometry width="50" height="50" relative="1" as="geometry">
            <mxPoint x="1330" y="353" as="sourcePoint" />
            <mxPoint x="1330" y="300" as="targetPoint" />
            <Array as="points">
              <mxPoint x="1330" y="310" />
            </Array>
          </mxGeometry>
        </mxCell>
        <mxCell id="YeWuNCgCZ7l87NX-cv6t-109" value="" style="endArrow=none;html=1;shadow=0;exitX=0.5;exitY=0;exitDx=0;exitDy=0;" edge="1" parent="WIyWlLk6GJQsqaUBKTNV-1">
          <mxGeometry width="50" height="50" relative="1" as="geometry">
            <mxPoint x="1120" y="353" as="sourcePoint" />
            <mxPoint x="1120" y="300" as="targetPoint" />
            <Array as="points">
              <mxPoint x="1120" y="310" />
            </Array>
          </mxGeometry>
        </mxCell>
        <mxCell id="YeWuNCgCZ7l87NX-cv6t-110" value="" style="endArrow=none;html=1;shadow=0;exitX=0.5;exitY=0;exitDx=0;exitDy=0;" edge="1" parent="WIyWlLk6GJQsqaUBKTNV-1">
          <mxGeometry width="50" height="50" relative="1" as="geometry">
            <mxPoint x="870" y="352" as="sourcePoint" />
            <mxPoint x="870" y="299" as="targetPoint" />
            <Array as="points">
              <mxPoint x="870" y="309" />
            </Array>
          </mxGeometry>
        </mxCell>
        <mxCell id="YeWuNCgCZ7l87NX-cv6t-111" value="" style="endArrow=none;html=1;shadow=0;exitX=0.5;exitY=0;exitDx=0;exitDy=0;" edge="1" parent="WIyWlLk6GJQsqaUBKTNV-1">
          <mxGeometry width="50" height="50" relative="1" as="geometry">
            <mxPoint x="640" y="353" as="sourcePoint" />
            <mxPoint x="640" y="300" as="targetPoint" />
            <Array as="points">
              <mxPoint x="640" y="310" />
            </Array>
          </mxGeometry>
        </mxCell>
        <mxCell id="YeWuNCgCZ7l87NX-cv6t-112" value="" style="endArrow=none;html=1;shadow=0;exitX=0.5;exitY=0;exitDx=0;exitDy=0;" edge="1" parent="WIyWlLk6GJQsqaUBKTNV-1">
          <mxGeometry width="50" height="50" relative="1" as="geometry">
            <mxPoint x="434.58" y="352" as="sourcePoint" />
            <mxPoint x="434.58" y="299" as="targetPoint" />
            <Array as="points">
              <mxPoint x="434.58" y="309" />
            </Array>
          </mxGeometry>
        </mxCell>
        <mxCell id="YeWuNCgCZ7l87NX-cv6t-113" value="" style="endArrow=none;html=1;shadow=0;exitX=0.5;exitY=0;exitDx=0;exitDy=0;" edge="1" parent="WIyWlLk6GJQsqaUBKTNV-1">
          <mxGeometry width="50" height="50" relative="1" as="geometry">
            <mxPoint x="220" y="352" as="sourcePoint" />
            <mxPoint x="220" y="299" as="targetPoint" />
            <Array as="points">
              <mxPoint x="220" y="309" />
            </Array>
          </mxGeometry>
        </mxCell>
        <mxCell id="YeWuNCgCZ7l87NX-cv6t-114" value="" style="endArrow=none;html=1;shadow=0;exitX=0.5;exitY=0;exitDx=0;exitDy=0;" edge="1" parent="WIyWlLk6GJQsqaUBKTNV-1">
          <mxGeometry width="50" height="50" relative="1" as="geometry">
            <mxPoint y="353" as="sourcePoint" />
            <mxPoint y="300" as="targetPoint" />
            <Array as="points">
              <mxPoint y="310" />
            </Array>
          </mxGeometry>
        </mxCell>
        <mxCell id="YeWuNCgCZ7l87NX-cv6t-115" value="" style="endArrow=none;html=1;shadow=0;exitX=0.5;exitY=0;exitDx=0;exitDy=0;" edge="1" parent="WIyWlLk6GJQsqaUBKTNV-1">
          <mxGeometry width="50" height="50" relative="1" as="geometry">
            <mxPoint x="-200" y="352" as="sourcePoint" />
            <mxPoint x="-200" y="299" as="targetPoint" />
            <Array as="points">
              <mxPoint x="-200" y="309" />
            </Array>
          </mxGeometry>
        </mxCell>
        <mxCell id="YeWuNCgCZ7l87NX-cv6t-117" value="" style="endArrow=block;endSize=16;endFill=0;html=1;shadow=0;entryX=0.523;entryY=1.013;entryDx=0;entryDy=0;entryPerimeter=0;" edge="1" parent="WIyWlLk6GJQsqaUBKTNV-1" target="YeWuNCgCZ7l87NX-cv6t-99">
          <mxGeometry width="160" relative="1" as="geometry">
            <mxPoint x="708" y="300" as="sourcePoint" />
            <mxPoint x="690" y="260" as="targetPoint" />
          </mxGeometry>
        </mxCell>
        <mxCell id="YeWuNCgCZ7l87NX-cv6t-118" value="" style="endArrow=block;endSize=16;endFill=0;html=1;shadow=0;entryX=0.523;entryY=1.013;entryDx=0;entryDy=0;entryPerimeter=0;" edge="1" parent="WIyWlLk6GJQsqaUBKTNV-1">
          <mxGeometry width="160" relative="1" as="geometry">
            <mxPoint x="1330" y="520" as="sourcePoint" />
            <mxPoint x="1330.0000000000005" y="431.00199999999995" as="targetPoint" />
          </mxGeometry>
        </mxCell>
        <mxCell id="YeWuNCgCZ7l87NX-cv6t-119" value="" style="endArrow=none;html=1;shadow=0;" edge="1" parent="WIyWlLk6GJQsqaUBKTNV-1">
          <mxGeometry width="50" height="50" relative="1" as="geometry">
            <mxPoint x="1120" y="520" as="sourcePoint" />
            <mxPoint x="1620" y="520" as="targetPoint" />
          </mxGeometry>
        </mxCell>
        <mxCell id="YeWuNCgCZ7l87NX-cv6t-120" value="" style="endArrow=none;html=1;shadow=0;exitX=0.5;exitY=0;exitDx=0;exitDy=0;" edge="1" parent="WIyWlLk6GJQsqaUBKTNV-1" source="YeWuNCgCZ7l87NX-cv6t-83">
          <mxGeometry width="50" height="50" relative="1" as="geometry">
            <mxPoint x="1280" y="610" as="sourcePoint" />
            <mxPoint x="1125" y="520" as="targetPoint" />
          </mxGeometry>
        </mxCell>
        <mxCell id="YeWuNCgCZ7l87NX-cv6t-123" value="" style="endArrow=none;html=1;shadow=0;exitX=0.5;exitY=0;exitDx=0;exitDy=0;" edge="1" parent="WIyWlLk6GJQsqaUBKTNV-1">
          <mxGeometry width="50" height="50" relative="1" as="geometry">
            <mxPoint x="1340" y="559.0000000000001" as="sourcePoint" />
            <mxPoint x="1340" y="520" as="targetPoint" />
          </mxGeometry>
        </mxCell>
        <mxCell id="YeWuNCgCZ7l87NX-cv6t-124" value="" style="endArrow=none;html=1;shadow=0;exitX=0.5;exitY=0;exitDx=0;exitDy=0;" edge="1" parent="WIyWlLk6GJQsqaUBKTNV-1">
          <mxGeometry width="50" height="50" relative="1" as="geometry">
            <mxPoint x="1614.8600000000001" y="559.0000000000001" as="sourcePoint" />
            <mxPoint x="1614.8600000000001" y="520" as="targetPoint" />
          </mxGeometry>
        </mxCell>
        <mxCell id="YeWuNCgCZ7l87NX-cv6t-125" value="" style="endArrow=block;endSize=16;endFill=0;html=1;shadow=0;entryX=0.496;entryY=1.069;entryDx=0;entryDy=0;entryPerimeter=0;exitX=0.5;exitY=0;exitDx=0;exitDy=0;" edge="1" parent="WIyWlLk6GJQsqaUBKTNV-1" source="YeWuNCgCZ7l87NX-cv6t-92" target="YeWuNCgCZ7l87NX-cv6t-91">
          <mxGeometry width="160" relative="1" as="geometry">
            <mxPoint x="1480" y="550" as="sourcePoint" />
            <mxPoint x="1640" y="550" as="targetPoint" />
          </mxGeometry>
        </mxCell>
        <mxCell id="YeWuNCgCZ7l87NX-cv6t-126" value="" style="endArrow=none;html=1;shadow=0;" edge="1" parent="WIyWlLk6GJQsqaUBKTNV-1">
          <mxGeometry width="50" height="50" relative="1" as="geometry">
            <mxPoint x="-360" y="500" as="sourcePoint" />
            <mxPoint x="-160" y="500" as="targetPoint" />
          </mxGeometry>
        </mxCell>
        <mxCell id="YeWuNCgCZ7l87NX-cv6t-127" value="" style="endArrow=none;html=1;shadow=0;exitX=0.5;exitY=0;exitDx=0;exitDy=0;" edge="1" parent="WIyWlLk6GJQsqaUBKTNV-1" source="YeWuNCgCZ7l87NX-cv6t-35">
          <mxGeometry width="50" height="50" relative="1" as="geometry">
            <mxPoint x="-210" y="550" as="sourcePoint" />
            <mxPoint x="-360" y="500" as="targetPoint" />
          </mxGeometry>
        </mxCell>
        <mxCell id="YeWuNCgCZ7l87NX-cv6t-129" value="" style="endArrow=none;html=1;shadow=0;exitX=0.5;exitY=0;exitDx=0;exitDy=0;" edge="1" parent="WIyWlLk6GJQsqaUBKTNV-1" source="YeWuNCgCZ7l87NX-cv6t-45">
          <mxGeometry width="50" height="50" relative="1" as="geometry">
            <mxPoint x="-350" y="530" as="sourcePoint" />
            <mxPoint x="-160" y="500" as="targetPoint" />
          </mxGeometry>
        </mxCell>
        <mxCell id="YeWuNCgCZ7l87NX-cv6t-131" value="" style="endArrow=block;endSize=16;endFill=0;html=1;shadow=0;entryX=0.523;entryY=1.013;entryDx=0;entryDy=0;entryPerimeter=0;" edge="1" parent="WIyWlLk6GJQsqaUBKTNV-1">
          <mxGeometry width="160" relative="1" as="geometry">
            <mxPoint x="-160" y="680" as="sourcePoint" />
            <mxPoint x="-160.33999999999997" y="624.002" as="targetPoint" />
          </mxGeometry>
        </mxCell>
        <mxCell id="YeWuNCgCZ7l87NX-cv6t-132" value="" style="endArrow=block;endSize=16;endFill=0;html=1;shadow=0;entryX=0.523;entryY=1.013;entryDx=0;entryDy=0;entryPerimeter=0;" edge="1" parent="WIyWlLk6GJQsqaUBKTNV-1">
          <mxGeometry width="160" relative="1" as="geometry">
            <mxPoint x="-240" y="500" as="sourcePoint" />
            <mxPoint x="-239.9999999999997" y="454.00199999999995" as="targetPoint" />
          </mxGeometry>
        </mxCell>
      </root>
    </mxGraphModel>
  </diagram>
</mxfile>
